<?xml version="1.0" encoding="utf-8"?>
<!-- Generator: Adobe Illustrator 23.0.3, SVG Export Plug-In . SVG Version: 6.00 Build 0)  -->
<svg version="1.1" xmlns="http://www.w3.org/2000/svg" xmlns:xlink="http://www.w3.org/1999/xlink" x="0px" y="0px"
	 viewBox="0 0 474 296" style="enable-background:new 0 0 474 296;" xml:space="preserve">
<style type="text/css">
	.st0{fill:#FFFFFF;}
	.st1{fill:#0079C1;}
	.st2{fill:#FAB400;}
	.st3{fill:#1C2F76;}
	.st4{fill:none;}
	.st5{fill:#231F20;}
	.st6{fill:#FF5F00;}
	.st7{fill:#EB001B;}
	.st8{fill:#F79E1B;}
	.st9{fill:#7673C0;}
	.st10{fill:#00A1DF;}
	.st11{fill:#C3C3C0;}
</style>
<g id="Layer_1">
	<g>
		<rect x="-8.09" y="-7.46" class="st0" width="490.03" height="311.28"/>
		<rect x="0.08" y="253.24" class="st2" width="473.7" height="42.47"/>
		<rect x="0.08" y="0.7" class="st3" width="473.7" height="42.47"/>
		<path class="st3" d="M189.69,89.96L140.75,206.7h-31.92l-24.08-93.16c-1.46-5.73-2.73-7.83-7.17-10.25
			c-7.26-3.95-19.25-7.63-29.79-9.93l0.71-3.39h51.39c6.55,0,12.43,4.36,13.93,11.89l12.72,67.55l31.42-79.45H189.69z
			 M314.76,168.58c0.13-30.81-42.59-32.51-42.3-46.28c0.09-4.18,4.08-8.64,12.81-9.78c4.32-0.56,16.26-1.01,29.78,5.22l5.29-24.76
			c-7.27-2.63-16.62-5.16-28.25-5.16c-29.86,0-50.86,15.86-51.03,38.58c-0.19,16.81,15,26.18,26.43,31.77
			c11.78,5.72,15.73,9.39,15.67,14.5c-0.08,7.83-9.39,11.3-18.06,11.43c-15.19,0.24-24-4.11-31.02-7.38l-5.48,25.59
			c7.07,3.23,20.09,6.05,33.57,6.19C293.91,208.53,314.67,192.86,314.76,168.58 M393.6,206.7h27.92l-24.4-116.73h-25.76
			c-5.81,0-10.7,3.37-12.87,8.56L313.19,206.7h31.72l6.3-17.43h38.74L393.6,206.7z M359.89,165.34l15.9-43.84l9.15,43.84H359.89z
			 M232.84,89.96L207.87,206.7h-30.2l24.97-116.73H232.84z"/>
	</g>
</g>
<g id="Layer_2">
</g>
</svg>
